<svg id="Layer_1" data-name="Layer 1" xmlns="http://www.w3.org/2000/svg" viewBox="0 0 570.54 486.65"><defs><style>.cls-1{fill:#fff;}</style></defs><title>signature</title><path class="cls-1" d="M254,11l2.21,3.78c5-3.53,9.37-9.07,14.18-9.49,9.62-.84,18.36-8.69,28.89-3.47,2.5,1.24,6.57-.57,9.9-1.13,11.73-2,19,3.67,23.93,13.67a14.23,14.23,0,0,0,3.53,4.18c4.42,3.85,6.18,8.42,5.8,14.43a114.7,114.7,0,0,1-9.93,40.92c-5,10.86-11,21.25-16.46,31.89-3.61,7-6.63,14.38-10.76,21.06-6.16,10-13.18,19.42-19.62,29.23q-15.29,23.34-30.25,46.88c-4.15,6.53-7.55,13.57-12,19.92-5.71,8.21-12.08,15.94-18.16,23.89-3.8,5-7.63,9.92-11.27,15-.43.6,0,2.75.56,2.93a7.22,7.22,0,0,0,4.12.11c7.53-2.07,14.92-5.28,22.55-6,2.76-.24,6.08,5.4,9.1,8.41.77.77,1.17,2,2.05,2.55,2.73,1.53,15.47-1.44,18.26-3.28s6.33-2.64,9.38-4.18c6.92-3.49,13.93-6.86,20.57-10.83,9.39-5.62,18.68-11.44,27.6-17.77,4.31-3.06,7.46-7.69,11.48-11.22,9.9-8.71,20.11-17.08,30-25.81,6.53-5.77,12.63-12,19.13-17.85,2.28-2,5.56-3,7.7-5.15,9.13-9.11,17.9-18.56,27-27.67,2.89-2.89,6.56-5,9.65-7.66,1.94-1.7,3.4-3.93,5.21-5.78a4.73,4.73,0,0,1,2.64-1.39c5.24-.58,8.14-3.41,10.43-8.21,1.77-3.72,5.35-6.62,8.33-9.69,5.48-5.62,11.34-10.88,16.61-16.69,5.41-6,13.17-7.79,19.63-11.89,3.09-2,6.73-.87,8.46,3.42a11.61,11.61,0,0,0,3.65,4.58c7.67,5.81,6.57,6.57,4.11,15.72a6.15,6.15,0,0,1-2.5,2.9c-8.72,6.11-17.51,12.11-26.24,18.2-.65.45-.87,1.57-1.53,1.93-9.47,5.27-16.45,13.41-23.71,21.09-8.44,8.92-18.69,16.35-23.52,28.45-1.05,2.64-4.95,4-7.13,6.35-4.34,4.68-8.63,9.45-12.54,14.49-10.9,14-21.59,28.22-32.39,42.33-1.64,2.14-3.43,4.15-6.33,7.64,2.77-.76,4-.74,4.66-1.33,7.82-6.72,15.42-13.69,23.34-20.29,8.47-7,17.42-13.5,25.73-20.71,3.59-3.11,5.88-7.67,9.18-11.18,2.63-2.8,6.09-4.81,8.85-7.51,13.75-13.38,27.5-26.75,41-40.4,3.51-3.56,5.88-8.22,9.07-12.13,3.88-4.76,8.2-9.16,12.09-13.92,3.5-4.27,6.5-9,10-13.19,1.67-2,4.33-3.15,6.14-5.07,4.92-5.2,9.66-10.58,14.4-15.94,3.4-3.84,6.47-8,10.1-11.59,3.09-3.06,6.6-3.73,10,.11,1.62,1.8,4.09,2.84,5.68,4.65,5.58,6.43,5.14,10.15-1.36,18.1-5.92,7.22-11.55,14.69-17.52,21.87-6.19,7.45-12.87,14.51-18.92,22.08-6.36,8-12.11,16.43-18.35,24.51-5.1,6.61-10.59,12.93-15.76,19.49-7.39,9.36-14.73,18.75-21.92,28.25C466,226.67,459.54,236,452.62,245c-5,6.53-10.68,12.59-15.79,19.06-3.5,4.43-6.59,9.18-9.73,13.88-.54.81-.41,2.07-.59,3.12,1.23.2,2.67.93,3.64.52,6.2-2.61,12.21-5.64,18.43-8.19,4-1.64,8.19-2.71,12.3-4,5.92-1.87,11.79-3.9,17.77-5.52,4.27-1.16,8.67-1.82,13-2.61,2.21-.4,4.49-.51,6.71-.9,6.91-1.22,13.79-2.73,20.74-3.59a6.41,6.41,0,0,1,5.13,2.7c2.52,4.38-2.48,12.64-7.16,14.16s-8.64,4.59-13.12,6.52c-3,1.28-6.39,1.61-9.53,2.61-11.27,3.59-22.69,6.85-33.72,11.09-8.91,3.42-17.21,8.4-26,12.09-7.4,3.1-15.16,5.33-22.74,8-4.68,1.65-9.5,3.05-13.91,5.27-1.92,1-2.89,3.73-4.41,5.59-4.82,5.9-9.81,11.66-14.51,17.65-5.86,7.46-11.63,15-17.2,22.67-6.23,8.56-12.2,17.31-18.27,26-2.77,4-5.6,7.88-8.26,11.91-9,13.67-18,27.4-27,41.08-3,4.62-5.78,9.51-9.38,13.64-2,2.32-5.57,4.77-8.33,4.66a65.67,65.67,0,0,1-17.2-3.59c-1.27-.41-1.84-4-2.14-6.16-.6-4.25-1.16-7.9,1.73-12.48,6.64-10.54,11.57-22.16,17.3-33.28,3.38-6.56,7.31-12.85,10.37-19.55,3.16-6.92,5-14.46,8.42-21.24,5.44-10.79,10.45-22.18,18-31.43,6.75-8.32,14.35-16.63,25.44-20.7,9.35-3.43,18.08-8.61,26.86-13.42a27.45,27.45,0,0,0,7.77-6.85c9.11-11.34,18-22.87,26.87-34.39.5-.64.26-1.85.37-2.79-1,0-2.43-.42-3,.09-8.05,6.8-15.74,14-24,20.53-6.58,5.14-13.9,9.32-20.77,14.09-2.7,1.88-4.92,4.45-7.63,6.3-8.37,5.72-17,11-25.19,17-2,1.44-2.4,4.87-3.77,7.26-1.15,2-2.64,3.81-4,5.71-4,5.69-8.48,11.12-12,17.13-5,8.61-9.14,17.68-13.78,26.49q-5.18,9.86-10.66,19.54c-4,7.05-8.35,13.93-12.3,21-3.56,6.38-6.86,12.9-10.17,19.41-5.12,10.09-10.21,20.2-15.19,30.36-2.9,5.91-5.79,11.83-8.24,17.93-2.78,6.92-9.5,9.28-16.34,5.54a16.25,16.25,0,0,0-6.31-1.79c-4.46-.39-7-3-5.44-6.88,3.91-9.56,8.71-18.75,13.07-28.12,2.35-5.06,4.33-10.3,6.83-15.29,3.19-6.38,6.76-12.58,10.13-18.89,2-3.78,4-7.58,5.94-11.42,4.39-8.84,8.53-17.81,13.12-26.55,4.22-8,8.8-15.88,13.37-23.73,5.76-9.92,11.84-19.67,17.39-29.7,1.53-2.76,1.73-6.27,2.46-9.46,1.3-5.68,1.91-11.61,3.95-17,2.24-5.94,11.91-10.08,18.05-9a4.07,4.07,0,0,0,3.06-1.5c4.81-6,9.49-12.18,14.16-18.32q2.73-3.6,5.23-7.36a4.35,4.35,0,0,0,.52-2.12c-1.31-.51-3-1.53-4-1.08a77.27,77.27,0,0,0-10.29,5.73c-7.48,4.9-14.79,10.07-22.27,15-5.12,3.36-10.14,7.09-15.71,9.51-6.7,2.91-14,4.54-20.93,6.88-2.58.87-4.9,2.61-7.51,3.25-6.57,1.63-13.31,4.25-19.84,3.89-8-.44-16.75-.86-22.61-8.36a6.13,6.13,0,0,0-5.05-1.92c-9.65,2.07-19.31,4.23-28.73,7.1-2.67.81-4.67,4-6.81,6.29-7.66,8.11-15.09,16.45-22.91,24.41-10.18,10.39-20.77,20.39-30.94,30.79-4.18,4.28-7.39,9.52-11.67,13.69a183.9,183.9,0,0,1-15.54,12.93c-10.56,8.25-20.94,16.8-32,24.38-7.73,5.32-16.4,9.29-24.71,13.75a5.51,5.51,0,0,1-3.42.24c-6.27-1.32-12.6-2.51-18.71-4.4-1.32-.41-2.62-3.58-2.53-5.4.44-8.82,4.94-16,10.14-22.8C32,385,36.52,378,42.1,371.87,48,365.46,54.9,360,61.15,354c6.91-6.72,13.51-13.74,20.36-20.52,3.84-3.81,8.7-6.85,11.69-11.21,6.41-9.34,18.59-9.65,25.8-17.8,4-4.58,9.65-8,15-11.15,9.46-5.55,19.06-11,29-15.57,9.17-4.25,16.32-9.6,22.12-18.45,8.18-12.49,19-23.21,28.07-35.17,6.7-8.87,12.3-18.56,18.53-27.78,1.82-2.7,4.34-4.92,6.18-7.61,4.09-5.94,8-12,11.91-18.07,3-4.57,6.06-9.08,8.93-13.72,1.78-2.87,3.29-5.92,4.88-8.92.84-1.58,1.17-4.06,2.43-4.66,4.42-2.12,7.16-4.65,6.85-10.13-.09-1.58,3.27-3.1,4.26-5.05,2-4,3.14-8.36,5.22-12.26,2.81-5.28,6.37-10.14,9.26-15.38,3.43-6.22,6.45-12.67,9.73-19,1.82-3.52,4.34-6.78,5.61-10.48,3.39-9.88,6.72-19.83,9.2-30,1.45-5.9-4.11-13.84-10.25-15.26C293.31,22.9,281.16,24.13,269.7,31c-4.4,2.63-9.66,3.8-14.32,6-10.44,5-22.55,6.3-31.54,14.83-3.1,2.93-8.18,3.67-12.07,5.9C196.64,66.44,181.42,75,166.63,84.22c-11.34,7.08-22.26,14.87-33,22.78-8.34,6.11-16,13.17-24.31,19.34-16.59,12.31-30,27.78-42.93,43.59a277.37,277.37,0,0,0-23.86,35.15c-5.24,8.93-10.26,18.58-12.4,28.55-2.08,9.63-.74,20.09-.12,30.14.3,4.94,1.1,10.8,4,14.4,3.65,4.56,9.47,7.51,14.66,10.67,5.38,3.27,8.16,8.74,6.07,13.4-1.62,3.61-10.18,6.62-14.54,5-4.7-1.75-9.48-3.36-14-5.55s-10.73-4.14-12.89-8-5.88-6.26-7.12-9.93C3.54,276,1.21,268,.45,259.93a113.93,113.93,0,0,1,.77-26.61c.84-5.92,4.06-11.51,6.34-17.2,2.66-6.63,4.68-13.7,8.41-19.7,5.12-8.23,11.62-15.59,17.44-23.4q4.8-6.45,9.27-13.14c1.54-2.32,2.21-5.4,4.11-7.29Q63.5,136.06,80.66,120c10.94-10.21,21.7-20.69,33.39-30,10.49-8.33,22.17-15.15,33.25-22.74C152.17,64,156.67,60,161.7,57s10.87-5.37,16.19-8.26C186.42,44.1,194.41,38,203.45,35c5.17-1.7,9-7.93,15.7-5.5.85.3,2.48-2.37,4-3.06,6.92-3.1,12.49-8.86,21-9.15C247.42,17.17,250.57,13.28,254,11Z"/></svg>